<?xml version="1.0" encoding="UTF-8"?>
<svg id="Layer_1" data-name="Layer 1" xmlns="http://www.w3.org/2000/svg" viewBox="0 0 596 842">
  <defs>
    <style>
      .cls-1 {
        stroke-width: 0px;
      }

      .cls-1, .cls-2 {
        fill: #fff;
      }

      .cls-3 {
        stroke: #ff0;
      }

      .cls-3, .cls-2, .cls-4 {
        stroke-miterlimit: 10;
      }

      .cls-3, .cls-4 {
        stroke-width: 2px;
      }

      .cls-2, .cls-4 {
        stroke: #000;
      }

      .cls-4 {
        fill: #ff0;
      }
    </style>
  </defs>
  <rect class="cls-1" width="596" height="842"/>
  <g>
    <polygon class="cls-2" points="73.34 176.89 73.34 209.13 41.83 209.13 41.83 605.92 73.34 605.92 73.34 630.77 99.56 630.77 99.1 636.25 128.06 636.25 128.06 665.11 312.93 665.11 312.93 641 339.52 640.54 339.52 550.39 489.77 550.39 489.77 523.35 523.81 523.35 523.81 494.85 554.17 494.58 554.17 270.51 523.81 269.78 523.81 246.4 498.36 245.58 498.36 215.52 451.14 215.52 451.78 176.89 73.34 176.89"/>
    <path class="cls-3" d="m471.14,258.08v174.14h-29.03v29.03h-29.03v29.03h-145.14v87.07h-29v29.03H93.79v-29.03h-29.03V229.04h29.03v58.07h29.03v-29.03h29v-29.03h-58.04v-29.03h319.28v29.03h29.03v29.03h29.03Zm-203.21,145.14h58.07v-116.11h-58.07v116.11Z"/>
    <path class="cls-4" d="m523.81,292.16v174.14h-29.03v29.03h-29.03v29.03h-145.14v87.04h-29v29.03h-145.14v-29.03h-29.03v-348.29h29.03v58.07h29.03v-29.03h29v-29.03h-58.04v-29.03h319.28v29.03h29.03v29.03h29.03Zm-203.21,145.11h58.07v-116.08h-58.07v116.08Z"/>
  </g>
</svg>