<?xml version="1.0" encoding="UTF-8"?>
<svg id="Layer_2" data-name="Layer 2" xmlns="http://www.w3.org/2000/svg" viewBox="0 0 596 842">
  <defs>
    <style>
      .cls-1, .cls-2, .cls-3, .cls-4 {
        stroke-miterlimit: 10;
      }

      .cls-1, .cls-3 {
        stroke-width: .5px;
      }

      .cls-1, .cls-3, .cls-4 {
        stroke: #000;
      }

      .cls-2 {
        stroke: #ff0;
      }

      .cls-2, .cls-4 {
        stroke-width: .25px;
      }

      .cls-3 {
        fill: #006837;
      }

      .cls-5 {
        fill: #fff;
        stroke-width: 0px;
      }

      .cls-4 {
        fill: #ff0;
      }
    </style>
  </defs>
  <rect class="cls-5" width="596" height="842"/>
  <g>
    <path class="cls-1" d="m52.71,150.28l63.93,58.37,64.62-55.59v246.68h233.48v-246.68l67.4,51.42,61.15-56.98-127.86-111.18h-56.28c-2.41,3.56-17.89,25.61-46.56,29.18-24.21,3.02-48.57-8.31-63.23-29.18h-70.88l-125.77,113.96Z"/>
    <g>
      <path class="cls-2" d="m237.37,124.18v6.84h-1.14v1.14h-1.14v1.14h-5.7v3.42h-1.14v1.14h-5.7v-1.14h-1.14v-13.68h1.14v2.28h1.14v-1.14h1.14v-1.14h-2.28v-1.14h12.54v1.14h1.14v1.14h1.14Zm-7.98,5.7h2.28v-4.56h-2.28v4.56Z"/>
      <path class="cls-2" d="m246.49,123.04h1.14v13.68h-1.14v1.14h-5.7v-1.14h-1.14v-13.68h1.14v2.28h1.14v-1.14h1.14v-1.14h-2.28v-1.14h5.7v1.14Z"/>
      <path class="cls-2" d="m265.87,123.04v3.42h-1.14v1.14h-1.14v1.14h-1.14v2.28h1.14v1.14h1.14v1.14h1.14v3.42h-1.14v1.14h-3.42v-1.14h-1.14v-1.14h-1.14v-1.14h-2.28v1.14h-1.14v1.14h-1.14v1.14h-3.42v-1.14h-1.14v-3.42h1.14v-1.14h1.14v-1.14h1.14v-2.28h-1.14v-1.14h-1.14v-1.14h-1.14v-3.42h1.14v2.28h1.14v-1.14h1.14v-1.14h-2.28v-1.14h3.42v1.14h1.14v1.14h1.14v1.14h2.28v-1.14h1.14v-1.14h1.14v-1.14h3.42v1.14h1.14Z"/>
      <path class="cls-2" d="m282.97,123.04h1.14v1.14h-1.14v1.14h-6.84v2.28h6.84v1.14h1.14v1.14h-1.14v1.14h-6.84v2.28h6.84v1.14h1.14v2.28h-1.14v1.14h-13.68v-1.14h-1.14v-13.68h1.14v2.28h1.14v-1.14h1.14v-1.14h-2.28v-1.14h13.68v1.14Z"/>
      <path class="cls-2" d="m300.07,134.44h1.14v2.28h-1.14v1.14h-12.54v-1.14h-1.14v-13.68h1.14v2.28h1.14v-1.14h1.14v-1.14h-2.28v-1.14h5.7v1.14h1.14v10.26h5.7v1.14Z"/>
      <path class="cls-2" d="m318.32,125.32h1.14v11.4h-1.14v1.14h-2.28v-1.14h-1.14v-6.84h-3.42v6.84h-1.14v1.14h-5.7v-1.14h-1.14v-12.54h1.14v1.14h1.14v-1.14h1.14v-1.14h-1.14v-1.14h10.26v1.14h1.14v1.14h1.14v1.14Zm-6.84,2.28h3.42v-2.28h-3.42v2.28Z"/>
      <path class="cls-2" d="m322.88,125.32h-1.14v-2.28h1.14v2.28Zm13.68-2.28h1.14v2.28h-1.14v1.14h-3.42v10.26h-1.14v1.14h-4.56v-1.14h-1.14v-10.26h-3.42v-1.14h1.14v-1.14h1.14v-1.14h-2.28v-1.14h13.68v1.14Z"/>
      <path class="cls-2" d="m354.8,123.04h1.14v1.14h-1.14v1.14h-6.84v2.28h6.84v1.14h1.14v1.14h-1.14v1.14h-6.84v2.28h6.84v1.14h1.14v2.28h-1.14v1.14h-13.68v-1.14h-1.14v-13.68h1.14v2.28h1.14v-1.14h1.14v-1.14h-2.28v-1.14h13.68v1.14Z"/>
      <path class="cls-2" d="m373.04,125.32h1.14v10.26h-1.14v1.14h-1.14v1.14h-12.54v-1.14h-1.14v-13.68h1.14v2.28h1.14v-1.14h1.14v-1.14h-2.28v-1.14h11.4v1.14h1.14v1.14h1.14v1.14Zm-4.56,1.14v-1.14h-2.28v7.98h2.28v-1.14h1.14v-5.7h-1.14Z"/>
      <path class="cls-4" d="m264.73,147.44v6.84h-1.14v1.14h-1.14v1.14h-5.7v3.42h-1.14v1.14h-5.7v-1.14h-1.14v-13.68h1.14v2.28h1.14v-1.14h1.14v-1.14h-2.28v-1.14h12.54v1.14h1.14v1.14h1.14Zm-7.98,5.7h2.28v-4.56h-2.28v4.56Z"/>
      <path class="cls-4" d="m273.85,146.3h1.14v13.68h-1.14v1.14h-5.7v-1.14h-1.14v-13.68h1.14v2.28h1.14v-1.14h1.14v-1.14h-2.28v-1.14h5.7v1.14Z"/>
      <path class="cls-4" d="m293.23,146.3v3.42h-1.14v1.14h-1.14v1.14h-1.14v2.28h1.14v1.14h1.14v1.14h1.14v3.42h-1.14v1.14h-3.42v-1.14h-1.14v-1.14h-1.14v-1.14h-2.28v1.14h-1.14v1.14h-1.14v1.14h-3.42v-1.14h-1.14v-3.42h1.14v-1.14h1.14v-1.14h1.14v-2.28h-1.14v-1.14h-1.14v-1.14h-1.14v-3.42h1.14v2.28h1.14v-1.14h1.14v-1.14h-2.28v-1.14h3.42v1.14h1.14v1.14h1.14v1.14h2.28v-1.14h1.14v-1.14h1.14v-1.14h3.42v1.14h1.14Z"/>
      <path class="cls-4" d="m310.33,146.3h1.14v1.14h-1.14v1.14h-6.84v2.28h6.84v1.14h1.14v1.14h-1.14v1.14h-6.84v2.28h6.84v1.14h1.14v2.28h-1.14v1.14h-13.68v-1.14h-1.14v-13.68h1.14v2.28h1.14v-1.14h1.14v-1.14h-2.28v-1.14h13.68v1.14Z"/>
      <path class="cls-4" d="m327.44,157.7h1.14v2.28h-1.14v1.14h-12.54v-1.14h-1.14v-13.68h1.14v2.28h1.14v-1.14h1.14v-1.14h-2.28v-1.14h5.7v1.14h1.14v10.26h5.7v1.14Z"/>
      <path class="cls-4" d="m345.68,146.3h1.14v2.28h-1.14v1.14h-6.84v1.14h6.84v1.14h1.14v6.84h-1.14v1.14h-1.14v1.14h-12.54v-1.14h-1.14v-3.42h1.14v-1.14h9.12v-1.14h-9.12v-1.14h-1.14v-5.7h1.14v1.14h1.14v-1.14h1.14v-1.14h-1.14v-1.14h12.54v1.14Z"/>
    </g>
  </g>
  <g>
    <path class="cls-3" d="m52.71,563.83l63.93,58.37,64.62-55.59v246.68h233.48v-246.68l67.4,51.42,61.15-56.98-127.86-111.18h-56.28c-2.41,3.56-17.89,25.61-46.56,29.18-24.21,3.02-48.57-8.31-63.23-29.18h-70.88l-125.77,113.96Z"/>
    <g>
      <path class="cls-2" d="m236.05,538.86v6.84h-1.14v1.14h-1.14v1.14h-5.7v3.42h-1.14v1.14h-5.7v-1.14h-1.14v-13.68h1.14v2.28h1.14v-1.14h1.14v-1.14h-2.28v-1.14h12.54v1.14h1.14v1.14h1.14Zm-7.98,5.7h2.28v-4.56h-2.28v4.56Z"/>
      <path class="cls-2" d="m245.17,537.72h1.14v13.68h-1.14v1.14h-5.7v-1.14h-1.14v-13.68h1.14v2.28h1.14v-1.14h1.14v-1.14h-2.28v-1.14h5.7v1.14Z"/>
      <path class="cls-2" d="m264.55,537.72v3.42h-1.14v1.14h-1.14v1.14h-1.14v2.28h1.14v1.14h1.14v1.14h1.14v3.42h-1.14v1.14h-3.42v-1.14h-1.14v-1.14h-1.14v-1.14h-2.28v1.14h-1.14v1.14h-1.14v1.14h-3.42v-1.14h-1.14v-3.42h1.14v-1.14h1.14v-1.14h1.14v-2.28h-1.14v-1.14h-1.14v-1.14h-1.14v-3.42h1.14v2.28h1.14v-1.14h1.14v-1.14h-2.28v-1.14h3.42v1.14h1.14v1.14h1.14v1.14h2.28v-1.14h1.14v-1.14h1.14v-1.14h3.42v1.14h1.14Z"/>
      <path class="cls-2" d="m281.65,537.72h1.14v1.14h-1.14v1.14h-6.84v2.28h6.84v1.14h1.14v1.14h-1.14v1.14h-6.84v2.28h6.84v1.14h1.14v2.28h-1.14v1.14h-13.68v-1.14h-1.14v-13.68h1.14v2.28h1.14v-1.14h1.14v-1.14h-2.28v-1.14h13.68v1.14Z"/>
      <path class="cls-2" d="m298.75,549.12h1.14v2.28h-1.14v1.14h-12.54v-1.14h-1.14v-13.68h1.14v2.28h1.14v-1.14h1.14v-1.14h-2.28v-1.14h5.7v1.14h1.14v10.26h5.7v1.14Z"/>
      <path class="cls-2" d="m316.99,540h1.14v11.4h-1.14v1.14h-2.28v-1.14h-1.14v-6.84h-3.42v6.84h-1.14v1.14h-5.7v-1.14h-1.14v-12.54h1.14v1.14h1.14v-1.14h1.14v-1.14h-1.14v-1.14h10.26v1.14h1.14v1.14h1.14v1.14Zm-6.84,2.28h3.42v-2.28h-3.42v2.28Z"/>
      <path class="cls-2" d="m321.55,540h-1.14v-2.28h1.14v2.28Zm13.68-2.28h1.14v2.28h-1.14v1.14h-3.42v10.26h-1.14v1.14h-4.56v-1.14h-1.14v-10.26h-3.42v-1.14h1.14v-1.14h1.14v-1.14h-2.28v-1.14h13.68v1.14Z"/>
      <path class="cls-2" d="m353.48,537.72h1.14v1.14h-1.14v1.14h-6.84v2.28h6.84v1.14h1.14v1.14h-1.14v1.14h-6.84v2.28h6.84v1.14h1.14v2.28h-1.14v1.14h-13.68v-1.14h-1.14v-13.68h1.14v2.28h1.14v-1.14h1.14v-1.14h-2.28v-1.14h13.68v1.14Z"/>
      <path class="cls-2" d="m371.72,540h1.14v10.26h-1.14v1.14h-1.14v1.14h-12.54v-1.14h-1.14v-13.68h1.14v2.28h1.14v-1.14h1.14v-1.14h-2.28v-1.14h11.4v1.14h1.14v1.14h1.14v1.14Zm-4.56,1.14v-1.14h-2.28v7.98h2.28v-1.14h1.14v-5.7h-1.14Z"/>
      <path class="cls-4" d="m263.41,562.12v6.84h-1.14v1.14h-1.14v1.14h-5.7v3.42h-1.14v1.14h-5.7v-1.14h-1.14v-13.68h1.14v2.28h1.14v-1.14h1.14v-1.14h-2.28v-1.14h12.54v1.14h1.14v1.14h1.14Zm-7.98,5.7h2.28v-4.56h-2.28v4.56Z"/>
      <path class="cls-4" d="m272.53,560.98h1.14v13.68h-1.14v1.14h-5.7v-1.14h-1.14v-13.68h1.14v2.28h1.14v-1.14h1.14v-1.14h-2.28v-1.14h5.7v1.14Z"/>
      <path class="cls-4" d="m291.91,560.98v3.42h-1.14v1.14h-1.14v1.14h-1.14v2.28h1.14v1.14h1.14v1.14h1.14v3.42h-1.14v1.14h-3.42v-1.14h-1.14v-1.14h-1.14v-1.14h-2.28v1.14h-1.14v1.14h-1.14v1.14h-3.42v-1.14h-1.14v-3.42h1.14v-1.14h1.14v-1.14h1.14v-2.28h-1.14v-1.14h-1.14v-1.14h-1.14v-3.42h1.14v2.28h1.14v-1.14h1.14v-1.14h-2.28v-1.14h3.42v1.14h1.14v1.14h1.14v1.14h2.28v-1.14h1.14v-1.14h1.14v-1.14h3.42v1.14h1.14Z"/>
      <path class="cls-4" d="m309.01,560.98h1.14v1.14h-1.14v1.14h-6.84v2.28h6.84v1.14h1.14v1.14h-1.14v1.14h-6.84v2.28h6.84v1.14h1.14v2.28h-1.14v1.14h-13.68v-1.14h-1.14v-13.68h1.14v2.28h1.14v-1.14h1.14v-1.14h-2.28v-1.14h13.68v1.14Z"/>
      <path class="cls-4" d="m326.11,572.38h1.14v2.28h-1.14v1.14h-12.54v-1.14h-1.14v-13.68h1.14v2.28h1.14v-1.14h1.14v-1.14h-2.28v-1.14h5.7v1.14h1.14v10.26h5.7v1.14Z"/>
      <path class="cls-4" d="m344.35,560.98h1.14v2.28h-1.14v1.14h-6.84v1.14h6.84v1.14h1.14v6.84h-1.14v1.14h-1.14v1.14h-12.54v-1.14h-1.14v-3.42h1.14v-1.14h9.12v-1.14h-9.12v-1.14h-1.14v-5.7h1.14v1.14h1.14v-1.14h1.14v-1.14h-1.14v-1.14h12.54v1.14Z"/>
    </g>
  </g>
</svg>