<?xml version="1.0" encoding="UTF-8"?>
<svg xmlns="http://www.w3.org/2000/svg" viewBox="0 0 1924.92 1083.17">
  <defs>
    <style>
      .cls-1, .cls-2, .cls-3, .cls-4 {
        stroke-width: .5px;
      }

      .cls-1, .cls-2, .cls-3, .cls-4, .cls-5 {
        stroke-miterlimit: 10;
      }

      .cls-1, .cls-3, .cls-4 {
        stroke: #e70012;
      }

      .cls-2 {
        stroke: #c1272d;
      }

      .cls-2, .cls-5 {
        fill: none;
      }

      .cls-3 {
        fill: #303030;
      }

      .cls-6 {
        fill: #333;
      }

      .cls-4 {
        fill: #1e1e1e;
      }

      .cls-5 {
        stroke: #000;
        stroke-width: 5px;
      }

      .cls-7 {
        opacity: .5;
      }
    </style>
  </defs>
  <g id="Layer_1">
    <g>
      <rect class="cls-6" x="2.22" y="2.15" width="1919" height="1079"/>
      <path d="M1920.72,2.65v1078H2.72V2.65h1918M1921.72,1.65H1.72v1080h1920V1.65h0Z"/>
    </g>
    <line class="cls-5" x1="147.22" y1="127.15" x2="2.22" y2="2.15"/>
    <line class="cls-5" x1="1922.18" y1="1081.28" x2="1777.18" y2="956.28"/>
    <line class="cls-5" x1="1923.29" y1="1.9" x2="1777.99" y2="126.55"/>
    <line class="cls-5" x1="146.93" y1="956.54" x2="1.63" y2="1081.19"/>
  </g>
  <g id="Layer_2">
    <path class="cls-1" d="M1779.72,958.65c-236.65,23.57-495.8,39.05-774.5,40.5-312.01,1.63-600.2-14.58-860.5-40.5-20.35-121.97-35.65-268.58-34.5-434.5,1.04-151.16,15.51-285.69,34.5-399.5,255.12-22.84,534-37.02,833.5-36.5,287.25.5,555.34,14.47,801.5,36.5,23.35,110.68,43.14,250.52,43.5,412.5.37,165.98-19.77,308.99-43.5,421.5Z"/>
  </g>
  <g id="Layer_8">
    <path class="cls-4" d="M1781.72,910.65c-5.01,26.14-1.5,48.44-28,51-216.91,20.94-449.87,36.64-711,38-293.73,1.53-587.7-13.16-834-36-26.97-2.5-48.36-24.32-53-51-18.54-106.57-22-214.55-21-360,.57-81.92,9.97-161.5,17-233,9.1-92.56,95.92-158.16,188.1-170.55,201.6-27.1,403.81-36.86,639.9-36.45,177.08.31,376.03,3.32,510,20,188.9,23.53,253.59,49.9,298,235,6.79,28.28,16.93,178.63,17,209,.32,143.54-5.51,242.73-23,334Z"/>
  </g>
  <g id="Layer_9">
    <path class="cls-3" d="M1160.68,467.34c-246.26,145.16-369.38,217.74-536.98,265.32-183.86,52.2-339.52,96.38-408.92,15.34-31.34-36.6-36.82-89.09-44.39-161.54-5.58-53.41-14.33-137.22,25.61-229.22,10.83-24.94,49.14-113.24,134.2-155.24,2.16-1.07,6.12-2.98,11.78-5.39,114.88-49.01,328.09-48.72,361.97-48.73,148.26-.04,219.81-6.65,368.8,1.8,23.61,1.34,121.41-2.17,197.2,37,42.03,21.72,62.28,55.31,69.15,94.76,12.61,72.46-169.95,180.91-178.42,185.9Z"/>
  </g>
  <g id="Layer_5">
    <g class="cls-7">
      <g>
        <path class="cls-2" d="M1585.22,108.65c.5,289,.5,577,0,865.62"/>
        <path class="cls-2" d="M1297.22,93.71c.5,299.94.5,598.94,0,898.94"/>
        <path class="cls-2" d="M1225.22,91.36c.5,301.29.5,602.29,0,903.29"/>
        <line class="cls-2" x1="1082.22" y1="88.65" x2="1082.22" y2="996.65"/>
        <line class="cls-2" x1="938.22" y1="88.65" x2="938.22" y2="998.65"/>
        <path class="cls-2" d="M1729.22,119.65c.5,280.33.5,561.67,0,842.24"/>
        <path class="cls-2" d="M1658.23,114.35c.5,285.3.5,569.3,0,853.95"/>
        <path class="cls-2" d="M1514.23,104.35c.5,292.3.5,583.3,0,874.97"/>
        <path class="cls-2" d="M1441.22,100.05c.5,294.6.5,589.6,0,884.6"/>
        <line class="cls-2" x1="1370.22" y1="96.65" x2="1370.22" y2="989.65"/>
        <line class="cls-2" x1="1154.22" y1="89.65" x2="1154.22" y2="996.65"/>
        <line class="cls-2" x1="1010.22" y1="87.65" x2="1010.22" y2="997.65"/>
        <path class="cls-2" d="M866.22,88.86c.5,302.79.5,605.79,0,908.79"/>
        <path class="cls-2" d="M794.23,90.32c-.5,302.33,2.5,604.33,0,906.33"/>
        <path class="cls-2" d="M722.22,91.63c.5,301.02.5,602.02,0,903.02"/>
        <path class="cls-2" d="M650.22,93.74c.5,299.91.5,599.91,0,899.91"/>
        <line class="cls-2" x1="578.22" y1="96.65" x2="578.22" y2="989.65"/>
        <path class="cls-2" d="M505.22,99.96c.5,294.69.5,590.69,0,885.69"/>
        <path class="cls-2" d="M434.22,103.79c.5,292.86.5,584.86,0,877.86"/>
        <path class="cls-2" d="M362.23,108.36c.5,289.29.5,579.29,0,868.29"/>
        <path class="cls-2" d="M218.23,119.16c.5,282.49.5,563.49,0,845.49"/>
        <path class="cls-2" d="M290.23,113.56c.5,286.09.5,571.09,0,857.09"/>
      </g>
      <path class="cls-2" d="M1501.3,980.95c-363.57-.3-727.57-.3-1091.57.01"/>
      <path class="cls-2" d="M1789.15,908.96c-551.43-.31-1100.43-.31-1651.73,0"/>
      <path class="cls-2" d="M1810.21,765.96c-563.48-.31-1126.48-.31-1689.48,0"/>
      <path class="cls-2" d="M1821.22,621.96c-570.49-.31-1139.49-.31-1709.49,0"/>
      <path class="cls-2" d="M1800.85,837.96c-558.13-.31-1115.13-.31-1672.73,0"/>
      <path class="cls-2" d="M1817.12,693.96c-567.4-.31-1134.4-.31-1701.53,0"/>
      <line class="cls-2" x1="1822.72" y1="549.96" x2="110.72" y2="549.96"/>
      <path class="cls-2" d="M1821.39,477.96c-569.66-.31-1139.66-.31-1709.96,0"/>
      <path class="cls-2" d="M1818.26,405.96c-568.53-.31-1135.53-.31-1704.13,0"/>
      <path class="cls-2" d="M1811.72,333.96c-564-.31-1128-.31-1692.41,0"/>
      <path class="cls-2" d="M1802.87,261.96c-559.15-.31-1118.15-.31-1676.83,0"/>
      <path class="cls-2" d="M1791.72,188.96c-552-.31-1104-.31-1656.49,0"/>
    </g>
    <path class="cls-2" d="M1695.07,117.96c-490.34-.31-978.34-.31-1467.94,0"/>
  </g>
</svg>